<?xml version="1.0" encoding="utf-8"?>
<!-- Generator: Adobe Illustrator 17.1.0, SVG Export Plug-In . SVG Version: 6.00 Build 0)  -->
<!DOCTYPE svg PUBLIC "-//W3C//DTD SVG 1.1//EN" "http://www.w3.org/Graphics/SVG/1.1/DTD/svg11.dtd">
<svg version="1.1" xmlns="http://www.w3.org/2000/svg" xmlns:xlink="http://www.w3.org/1999/xlink" x="0px" y="0px"
	 viewBox="0 0 60 60" enable-background="new 0 0 60 60" xml:space="preserve">
<g id="Calque_2">
</g>
<g id="Calque_1">
	<path fill="#FFFFFF" d="M2.9,13.9c17.6-3.2,35.2-6.4,52.9-9.7c0.8,4.2,1.5,8.4,2.3,12.7c-17.5,3.2-35,6.4-52.5,9.6c0,0,0,0.1,0,0.1
		c17.8,0,35.5,0,53.3,0c0,10.5,0,20.9,0,31.3c-17.9,0-35.8,0-53.8,0c0-0.2,0-0.5,0-0.7c0-9.2,0-18.4,0-27.6c0-2.2-0.2-4.4-0.6-6.6
		c-0.6-2.9-1.1-5.8-1.6-8.8C2.9,14.3,2.9,14.1,2.9,13.9z M9.7,44c14.9,0,29.8,0,44.8,0c0-4.3,0-8.6,0-12.8c-14.9,0-29.9,0-44.8,0
		C9.7,35.5,9.7,39.7,9.7,44z M35.9,11.4c-0.1,0-0.2,0-0.3,0c-1.7,0.3-3.5,0.6-5.2,1c-0.2,0-0.4,0.2-0.5,0.4
		c-1.5,2.1-2.9,4.2-4.4,6.4c-0.1,0.1-0.1,0.2-0.2,0.4c1.8-0.3,3.6-0.6,5.3-1c0.3-0.1,0.6-0.3,0.8-0.5c1.4-2,2.9-4.1,4.3-6.2
		C35.6,11.8,35.7,11.6,35.9,11.4z M23.7,13.6c-0.3,0-0.5,0.1-0.7,0.1c-1.5,0.3-3.1,0.5-4.6,0.9c-0.3,0.1-0.6,0.3-0.8,0.5
		c-1.5,2.1-2.9,4.2-4.4,6.3c-0.1,0.1-0.2,0.3-0.3,0.5c1.9-0.4,3.8-0.7,5.6-1c0.2,0,0.4-0.2,0.5-0.4c1.5-2.1,2.9-4.2,4.4-6.3
		C23.5,13.9,23.6,13.8,23.7,13.6z M48.1,9.1c-2,0.4-3.8,0.7-5.7,1.1c-0.2,0-0.4,0.3-0.5,0.4c-1.4,2.1-2.9,4.1-4.3,6.2
		c-0.1,0.1-0.2,0.3-0.3,0.5c1.9-0.3,3.6-0.7,5.4-1c0.4-0.1,0.6-0.2,0.8-0.5c1.1-1.7,2.3-3.4,3.5-5C47.3,10.3,47.6,9.8,48.1,9.1z
		 M7.7,21.5c1.4-2,2.6-3.8,4-5.8c-1.7,0.3-3.3,0.6-4.9,0.9C7.1,18.3,7.4,19.8,7.7,21.5z M49.4,15.1c1.7-0.3,3.3-0.6,4.9-0.9
		c-0.3-1.6-0.6-3.2-0.9-4.9C52,11.3,50.7,13.2,49.4,15.1z"/>
</g>
</svg>
