<?xml version="1.0" encoding="utf-8"?>
<!-- Generator: Adobe Illustrator 17.1.0, SVG Export Plug-In . SVG Version: 6.00 Build 0)  -->
<!DOCTYPE svg PUBLIC "-//W3C//DTD SVG 1.1//EN" "http://www.w3.org/Graphics/SVG/1.1/DTD/svg11.dtd">
<svg version="1.1" xmlns="http://www.w3.org/2000/svg" xmlns:xlink="http://www.w3.org/1999/xlink" x="0px" y="0px"
	 viewBox="0 0 60 60" enable-background="new 0 0 60 60" xml:space="preserve">
<g id="Calque_2">
</g>
<g id="Calque_1">
	<path fill="#FFFFFF" d="M-0.1,35.1c0.1-0.4,0.2-0.9,0.3-1.3C0.7,31.6,2.1,30.1,4,29c2.2-1.3,4.5-1.9,7-2.1c3-0.2,5.8,0.5,8.5,1.8
		c2.8,1.4,5.4,3.1,7.7,5.1c1.8,1.6,3.3,3.4,4.4,5.5c1.6,3.2,1.7,6.6,0.5,10c-0.6,1.7-1.4,3.2-2.5,4.6c-1.8,2-4,3.2-6.6,3.8
		c-2.9,0.6-5.7,0.4-8.5-0.4C12.6,56.7,10.7,56,9,55c-2.3-1.3-3.5-3.3-3.4-6.1c0-0.9,0.3-1.7,0.6-2.5c0.2-0.3,0.3-0.7,0.4-1.1
		c0.3-1.1,0.1-2-0.6-2.9c-0.6-0.7-1.3-1.2-2-1.6c-0.6-0.4-1.2-0.7-1.8-1c-1.3-0.8-2.1-2-2.3-3.6c0-0.1,0-0.1,0-0.2
		C-0.1,35.8-0.1,35.4-0.1,35.1z M9.3,49.3c0,1.6,1.3,2.8,2.8,2.8c1.6,0,2.9-1.3,2.8-2.8c0-1.6-1.3-2.8-2.8-2.8
		C10.6,46.5,9.3,47.7,9.3,49.3z M17,33.1c0-1.3-1.1-2.4-2.4-2.4c-1.3,0-2.4,1-2.4,2.3c0,1.3,1.1,2.4,2.3,2.4
		C15.9,35.4,17,34.4,17,33.1z M8.5,35.1c0-1.3-1-2.4-2.3-2.4c-1.3,0-2.4,1-2.4,2.3c0,1.3,1.1,2.4,2.3,2.4
		C7.5,37.5,8.5,36.4,8.5,35.1z M19,36.5c0,1.3,1,2.4,2.3,2.4c1.3,0,2.4-1,2.4-2.3c0-1.3-1-2.4-2.3-2.4C20.1,34.1,19,35.2,19,36.5z
		 M26.3,45.6c1.3,0,2.4-1,2.4-2.3c0-1.3-1-2.4-2.3-2.4C25,40.9,24,42,24,43.3C24,44.6,25,45.6,26.3,45.6z"/>
	<path fill="#FFFFFF" d="M59.5,32.9c-0.1,0.6-0.1,1.2-0.2,1.8c-0.3,2.2-1,4.2-2.4,5.9c-1.4,1.7-3.1,2.8-5.2,3.3
		c-3.2,0.9-6.5,0.9-9.7-0.2c-3.3-1.1-5.4-3.4-6.5-6.6c-0.5-1.5-0.7-3-0.7-4.5c0-5.9,0-11.8,0-17.7c0-1.1,1.3-2.7,2.9-2.5
		c1,0.2,1.9,0.5,2.8,0.9c1.4,0.6,2.8,1.1,4.4,1.4c2.4,0.4,4.7,0.2,7-0.6c1.2-0.4,2.3-0.9,3.5-1.3c0.4-0.1,0.8-0.2,1.2-0.3
		c1.3-0.2,2.6,0.6,2.9,1.9c0,0.1,0.1,0.2,0.1,0.2C59.5,20.7,59.5,26.8,59.5,32.9z M39.7,34.6c0,0.1,0.1,0.2,0.1,0.3
		c0.7,1.8,2,3.2,3.8,4c1.7,0.7,3.5,0.8,5.3,0.5c2.4-0.4,4.2-1.7,5.4-3.9c0.1-0.3,0.2-0.5,0.3-0.8C49.6,34.6,44.7,34.6,39.7,34.6z
		 M49.6,24.1c0,1.7,1.4,3.1,3.1,3.1c1.7,0,3.1-1.4,3.1-3.1c0-1.7-1.4-3.1-3.1-3.1C51,21,49.6,22.4,49.6,24.1z M38.5,24.1
		c0,1.7,1.4,3.1,3.1,3.1c1.7,0,3.1-1.4,3.1-3.1c0-1.7-1.4-3.1-3.1-3.1C39.9,21,38.5,22.4,38.5,24.1z"/>
	<path fill="#FFFFFF" d="M42.2,11.1c-0.4-0.2-0.8-0.4-1.2-0.6c-0.7-0.4-1.5-0.7-2.2-1.1c-0.8-0.4-1.7-0.4-2.6-0.1
		c-0.5,0.2-1,0.4-1.5,0.6c-0.9,0.5-1.4,1.2-1.8,2.1c-0.4,0.8-0.5,1.7-0.5,2.6c0,1.8,0,3.5,0,5.3c0,0.1,0,0.2,0,0.3
		c-0.1,0-0.2-0.1-0.3-0.1c-3-1.1-6.9,0.1-8.7,2.8c-0.3,0.5-0.5,1-0.8,1.6c0,0.1,0,0.2-0.1,0.3c3.3,0,6.6,0,9.9,0c0,2.4,0,4.8,0,7.3
		c-0.4,0-0.8,0.1-1.3,0.1c-1,0-1.9,0-2.9,0c-0.1,0-0.3-0.1-0.4-0.2c-2.6-2.1-5.5-3.9-8.6-5.3c-0.1,0-0.2-0.1-0.3-0.2
		c-0.9-1.7-1.3-3.5-1.4-5.4c0-0.5,0-1,0-1.5c0-5.6,0-11.2,0-16.8c0-1.3,1.2-2.4,2.2-2.6c0.6-0.1,1.3,0,1.9,0.3c1,0.4,2,0.8,3.1,1.2
		c3.7,1.4,7.3,1.3,10.9-0.2c0.9-0.3,1.7-0.7,2.6-1C38.5,0.2,39,0,39.5,0c1.4-0.1,2.7,1.2,2.7,2.5c0,2.8,0,5.5,0,8.3
		C42.2,10.9,42.2,11,42.2,11.1z M27.4,11.7c0-1.7-1.4-3.1-3.1-3.1c-1.7,0-3.1,1.4-3.1,3.1c0,1.7,1.4,3.1,3.1,3.1
		C26,14.8,27.4,13.4,27.4,11.7z"/>
</g>
</svg>
