<?xml version="1.0" encoding="utf-8"?>
<!-- Generator: Adobe Illustrator 17.1.0, SVG Export Plug-In . SVG Version: 6.00 Build 0)  -->
<!DOCTYPE svg PUBLIC "-//W3C//DTD SVG 1.1//EN" "http://www.w3.org/Graphics/SVG/1.1/DTD/svg11.dtd">
<svg version="1.1" xmlns="http://www.w3.org/2000/svg" xmlns:xlink="http://www.w3.org/1999/xlink" x="0px" y="0px"
	 viewBox="0 0 60 60" enable-background="new 0 0 60 60" xml:space="preserve">
<g id="Calque_2">
</g>
<g id="Calque_1">
	<g>
		<path fill="#FFFFFF" d="M47.8,55.3C45,57.2,40.5,59,34.7,59c-7.1,0-13.4-2.7-17.8-7.8c-3.3-3.7-5.5-8.8-6.3-15.1H5.1v-4.3h5
			c0-0.4,0-0.9,0-1.3c0-1.4,0.1-2.7,0.2-4H5.1v-4.4h5.8c1.1-6.1,3.7-11.2,7.2-14.8C22.6,2.6,28.3,0,35.5,0c5.2,0,9.2,1.5,11.7,2.8
			l-1.8,5.8c-2.2-1.3-5.9-2.5-9.8-2.5c-4.7,0-8.6,1.7-11.6,4.8c-2.6,2.5-4.4,6.5-5.3,11.2h24.5v4.4H17.9c-0.1,1.1-0.2,2.5-0.2,3.7
			c0,0.5,0,1,0,1.6h25.5v4.3H18.3c0.7,5.1,2.5,8.9,4.8,11.5c3.3,3.4,7.6,5.1,12.4,5.1c4.7,0,8.7-1.8,10.7-2.9L47.8,55.3z"/>
	</g>
</g>
</svg>
