<?xml version="1.0" encoding="utf-8"?>
<!-- Generator: Adobe Illustrator 17.1.0, SVG Export Plug-In . SVG Version: 6.00 Build 0)  -->
<!DOCTYPE svg PUBLIC "-//W3C//DTD SVG 1.1//EN" "http://www.w3.org/Graphics/SVG/1.1/DTD/svg11.dtd">
<svg version="1.1" xmlns="http://www.w3.org/2000/svg" xmlns:xlink="http://www.w3.org/1999/xlink" x="0px" y="0px"
	 viewBox="0 0 60 60" enable-background="new 0 0 60 60" xml:space="preserve">
<g id="Calque_2">
</g>
<g id="Calque_1">
	<path fill="#FFFFFF" d="M29.5,1C45.8,1,59,14.2,59,30.5C59,46.8,45.8,60,29.5,60C13.2,60,0,46.8,0,30.5C0,14.2,13.2,1,29.5,1z
		 M27.3,16.5c-0.1,0-0.2,0-0.3,0c-3.3,0.1-6.6,0.5-9.9,1.2c-0.4,0.1-0.5,0.4-0.5,0.7c-0.3,1.8-0.6,3.6-0.9,5.4
		c-0.2,1.5-0.3,3-0.4,4.6c4,0,8,0,11.9,0C27.3,24.4,27.3,20.5,27.3,16.5z M43.5,28.3c0-0.1,0-0.2,0-0.3c-0.1-3.3-0.6-6.6-1.2-9.8
		c-0.1-0.4-0.4-0.5-0.7-0.6c-1.8-0.3-3.6-0.6-5.4-0.9c-1.5-0.2-3-0.3-4.6-0.4c0,4,0,8,0,11.9C35.6,28.3,39.5,28.3,43.5,28.3z
		 M27.3,44.5c0-4,0-7.9,0-11.9c-4,0-7.9,0-11.9,0c0.1,3.5,0.5,6.9,1.3,10.2c0,0.1,0.3,0.3,0.4,0.4C20.5,44,23.9,44.4,27.3,44.5z
		 M31.7,32.7c0,4,0,7.9,0,11.8c0.1,0,0.2,0,0.2,0c3.3-0.1,6.6-0.6,9.9-1.2c0.5-0.1,0.5-0.4,0.5-0.7c0.3-1.8,0.6-3.6,0.9-5.4
		c0.2-1.5,0.3-3,0.4-4.5C39.5,32.7,35.6,32.7,31.7,32.7z M12.1,19c-1.5,0.5-3,1.1-4.6,1.6c-1.2,0.3-1.8,1-2.1,2.2
		c-0.5,1.9-1,3.7-1.1,5.7c2.3,0,4.5,0,6.7,0C11.4,25.2,11.7,22.2,12.1,19z M27.3,5.4c-1.9,0.1-5.2,0.8-6.9,1.5
		C20.2,7,20,7.3,19.9,7.5c-0.6,1.5-1.1,3-1.6,4.5c-0.1,0.4-0.2,0.7-0.3,1.1c3.1-0.3,6.2-0.7,9.3-1C27.3,9.9,27.3,7.6,27.3,5.4z
		 M41,13.1c-0.3-1-0.6-1.9-0.9-2.8c-0.4-1.1-0.6-2.5-1.4-3.2c-0.8-0.7-2.2-0.9-3.4-1.2c-1.1-0.3-2.3-0.4-3.5-0.6c0,2.4,0,4.6,0,6.8
		C34.8,12.4,37.9,12.7,41,13.1z M54.7,28.3c-0.2-2.4-0.7-4.7-1.6-6.9c-0.1-0.2-0.4-0.4-0.6-0.5c-0.9-0.4-1.9-0.7-2.8-1
		c-0.9-0.3-1.8-0.6-2.7-0.9c0.3,3.2,0.7,6.2,1,9.3C50.1,28.3,52.4,28.3,54.7,28.3z M11.1,32.7c-2.2,0-4.5,0-6.7,0
		c0.2,2.4,0.7,4.6,1.6,6.8C6,39.7,6.3,40,6.5,40.1c1.7,0.6,3.4,1.2,5.1,1.8c0.2,0.1,0.3,0.1,0.5,0.1C11.7,38.8,11.4,35.8,11.1,32.7z
		 M41,47.9c-3.2,0.3-6.2,0.7-9.3,1c0,2.2,0,4.5,0,6.7c2.4-0.2,4.7-0.7,6.9-1.6c0.2-0.1,0.4-0.3,0.5-0.5c0.4-1,0.8-2,1.1-3
		C40.5,49.6,40.7,48.8,41,47.9z M27.3,48.9c-3.2-0.3-6.2-0.7-9.4-1c0.5,1.5,1.1,3,1.6,4.6c0.3,1.2,1,1.8,2.2,2.1
		c1.9,0.5,3.7,1,5.7,1.1C27.3,53.4,27.3,51.1,27.3,48.9z M47.9,32.7c-0.3,3.2-0.7,6.2-1,9.4c1.6-0.5,3.1-1.2,4.6-1.6
		c1.2-0.3,1.7-1,2-2.1c0.5-1.9,1-3.7,1.1-5.7C52.4,32.7,50.1,32.7,47.9,32.7z M9.2,45.6c1.5,2,3.1,3.6,5.2,5.1
		c-0.4-1.4-0.7-2.5-1.1-3.7c0-0.1-0.2-0.3-0.3-0.4C11.8,46.3,10.6,46,9.2,45.6z M49.8,45.6c-1.4,0.4-2.5,0.7-3.7,1.1
		c-0.2,0-0.4,0.2-0.4,0.3c-0.4,1.2-0.7,2.4-1.1,3.8C46.6,49.2,48.2,47.6,49.8,45.6z M44.6,10.3c0.4,1.4,0.7,2.6,1.1,3.8
		c0,0.1,0.1,0.2,0.2,0.2c1.2,0.4,2.5,0.7,3.9,1.1C48.2,13.4,46.6,11.8,44.6,10.3z M9.2,15.4c1.4-0.4,2.6-0.7,3.8-1.1
		c0.1,0,0.2-0.1,0.3-0.2c0.4-1.2,0.7-2.5,1.1-3.8C12.4,11.8,10.8,13.4,9.2,15.4z"/>
</g>
</svg>
