<?xml version="1.0" encoding="utf-8"?>
<!-- Generator: Adobe Illustrator 17.1.0, SVG Export Plug-In . SVG Version: 6.00 Build 0)  -->
<!DOCTYPE svg PUBLIC "-//W3C//DTD SVG 1.1//EN" "http://www.w3.org/Graphics/SVG/1.1/DTD/svg11.dtd">
<svg version="1.1" xmlns="http://www.w3.org/2000/svg" xmlns:xlink="http://www.w3.org/1999/xlink" x="0px" y="0px"
	 viewBox="0 0 54.1 45.9" enable-background="new 0 0 54.1 45.9" xml:space="preserve">
<g id="Calque_2">
</g>
<g id="Calque_1">
	<g>
		<path fill="#FFFFFF" d="M53.7,36.3c-0.6-0.5-1.2-0.9-1.8-1.4c0.5-3.5,1.1-7.1,1.6-10.7c-3.4-0.8-6.7-1.7-10-2.5
			c0.4-2.6,0.8-5.1,1.2-7.7c-0.8-0.2-1.6-0.4-2.4-0.6c0.2-1.3,0.4-2.6,0.6-3.8c-0.1,0-0.2-0.1-0.3-0.1C39.8,8.7,37,8,34.2,7.4
			c-0.2,0-0.5,0.1-0.6,0.3c-0.8,0.8-1.6,1.5-2.4,2.4c-0.4,0.4-0.7,0.5-1.2,0.3c-1-0.3-2.1-0.6-3.2-0.8c-0.3-0.1-0.7,0-1,0.3
			c-1.1,0.9-2.1,1.7-3.2,2.6l11.5,3.1L34,16.8l-12.4-3.4c-0.7,0.6-1.5,1.2-2.2,1.9c-0.2,0.2-0.6,0.3-0.9,0.2
			C13.7,14.3,9,13.2,4.3,12c-1-0.3-2.1-0.5-3.2-0.8c3.6,6.7,7.1,13.2,10.7,19.6c0.1,0.2,0.3,0.4,0.5,0.4c3.9,1,7.9,2,11.8,3
			c2.3,0.6,4.6,1.2,6.9,1.7c0,0.1,0,0.2,0,0.2c-2,2.4-5.2,2.5-7.3,0.2c-2.1-2.3-5.9-2.4-7.9,0c-1.9,2.2-5.4,2.1-7.3,0
			c-2-2.3-5.9-2.2-7.9,0C0.2,36.7,0,37,0.3,37.5c0.3,0.4,0.6,0.3,0.9,0c2.1-2,4.9-1.9,6.8,0.2c2.2,2.3,5.9,2.3,8.1,0
			c2.1-2.2,5-2.2,7,0c2.2,2.3,5.9,2.3,8.1,0c2-2.1,5-2.1,7,0c2.2,2.4,5.9,2.4,8.2,0c1.9-2,4.8-2.1,6.7-0.2c0.3,0.3,0.6,0.6,0.9,0.1
			C54.3,36.9,54,36.5,53.7,36.3z M16.6,24.9l-2.4-0.5l0.4-3.1l2.4,0.5L16.6,24.9z M20.6,25.8l-2.4-0.5l0.4-3.1l2.4,0.5L20.6,25.8z
			 M24.6,26.7l-2.4-0.5l0.4-3.1l2.4,0.5L24.6,26.7z M28.6,27.6l-2.4-0.5l0.4-3.1l2.4,0.5L28.6,27.6z M32.6,28.6L30.2,28l0.4-3.1
			l2.4,0.5L32.6,28.6z M36.6,29.5l-2.4-0.5l0.4-3.1l2.4,0.5L36.6,29.5z M40.6,30.4l-2.4-0.5l0.4-3.1l2.4,0.5L40.6,30.4z"/>
	</g>
</g>
</svg>
