<?xml version="1.0" encoding="utf-8"?>
<!-- Generator: Adobe Illustrator 17.1.0, SVG Export Plug-In . SVG Version: 6.00 Build 0)  -->
<!DOCTYPE svg PUBLIC "-//W3C//DTD SVG 1.1//EN" "http://www.w3.org/Graphics/SVG/1.1/DTD/svg11.dtd">
<svg version="1.1" xmlns="http://www.w3.org/2000/svg" xmlns:xlink="http://www.w3.org/1999/xlink" x="0px" y="0px"
	 viewBox="0 0 60 60" enable-background="new 0 0 60 60" xml:space="preserve">
<g id="Calque_2">
</g>
<g id="Calque_1">
	<g>
		<path fill="#FFFFFF" d="M0.1,58.2c0-0.7,0-1.4,0-2.2c0.4,0,0.8,0,1.3,0c0-0.7,0-1.3,0-2c0.4,0,0.7,0,1.1-0.1c0-0.6,0-1.1,0-1.8
			c18.3,0,36.5,0,54.8,0c0,0.6,0,1.1,0,1.7c0.4,0,0.7,0.1,1.1,0.1c0,0.6,0,1.3,0,1.9c0.5,0,0.9,0,1.3,0.1c0,0.7,0,1.4,0,2.1
			C39.9,58.2,20,58.2,0.1,58.2z"/>
		<path fill="#FFFFFF" d="M59.8,8.9c-19.9,0-39.7,0-59.8,0c0.2-0.1,0.3-0.2,0.4-0.2c9.7-2.8,19.4-5.5,29.1-8.3c0.3-0.1,0.7-0.1,1,0
			c9.6,2.7,19.3,5.5,28.9,8.3C59.6,8.7,59.7,8.8,59.8,8.9C59.8,8.8,59.8,8.9,59.8,8.9z"/>
		<path fill="#FFFFFF" d="M1.5,14.5c0-1.4,0-2.7,0-4.1c19,0,37.9,0,57,0c0,1.4,0,2.7,0,4.1C39.4,14.5,20.5,14.5,1.5,14.5z"/>
		<path fill="#FFFFFF" d="M4,16.4c2,0,3.9,0,5.9,0c0,11.3,0,22.6,0,34c-2,0-3.9,0-5.9,0C4,39,4,27.7,4,16.4z"/>
		<path fill="#FFFFFF" d="M14.9,16.4c2,0,3.9,0,5.9,0c0,11.3,0,22.6,0,34c-2,0-3.9,0-5.9,0C14.9,39,14.9,27.7,14.9,16.4z"/>
		<path fill="#FFFFFF" d="M39,16.4c2,0,3.9,0,5.9,0c0,11.3,0,22.6,0,33.9c-2,0-3.9,0-5.9,0C39,39,39,27.7,39,16.4z"/>
		<path fill="#FFFFFF" d="M50,16.4c2,0,3.9,0,5.9,0c0,11.3,0,22.6,0,33.9c-2,0-3.9,0-5.9,0C50,39,50,27.7,50,16.4z"/>
	</g>
</g>
</svg>
