<?xml version="1.0" encoding="utf-8"?>
<!-- Generator: Adobe Illustrator 17.1.0, SVG Export Plug-In . SVG Version: 6.00 Build 0)  -->
<!DOCTYPE svg PUBLIC "-//W3C//DTD SVG 1.1//EN" "http://www.w3.org/Graphics/SVG/1.1/DTD/svg11.dtd">
<svg version="1.1" id="Calque_1" xmlns="http://www.w3.org/2000/svg" xmlns:xlink="http://www.w3.org/1999/xlink" x="0px" y="0px"
	 viewBox="0 0 60 60" enable-background="new 0 0 60 60" xml:space="preserve">
<path fill="#FFFFFF" d="M30,51.5c-2.3,1.4-4.4,2.7-6.6,3.9c-1.6,0.9-3.5,1.3-5.3,1.2c-2.1-0.1-3.8-1-5.1-2.7
	c-0.3-0.3-0.7-0.6-1.1-0.8c-1.8-0.5-2.9-1.6-3.2-3.3c-0.3-1.7,0.3-3.1,1.8-4.2c0.3-0.2,0.5-0.6,0.5-0.9c0.2-1,0.2-2.1,0.4-3.1
	c0.1-0.6-0.1-0.8-0.6-1.1c-2-1-4.1-2-6-3.3c-1.2-0.8-2.2-1.9-3.1-3.1c-1.8-2.5-1.7-5.2,0-7.8c1.2-1.8,2.9-3.2,4.7-4.3
	c1.3-0.8,2.7-1.5,4.1-2c1-0.4,1.1-0.8,0.9-1.7c-0.4-2.6-0.5-5.2,0.1-7.8c0.7-3.1,2.1-5.6,5.4-6.6c0.3-0.1,0.5-0.4,0.7-0.6
	c1-1.6,2.7-2.4,4.5-2c1.8,0.4,3,1.8,3.3,3.8c0,0.3,0.2,0.6,0.4,0.8c1.4,1,2.9,2,4.3,2.9c1.2-0.8,2.4-1.8,3.7-2.6
	c2.1-1.3,4.3-2.3,6.9-2.5c3.3-0.2,5.8,1.3,7.1,4.4c1.1,2.6,1.3,5.3,1.1,8c-0.1,0.9-0.1,1.7-0.3,2.5c-0.1,0.7,0.1,1,0.8,1.3
	c2,1,4,1.9,5.9,3.2c1.2,0.8,2.3,2,3.2,3.3c1.6,2.3,1.6,4.8,0.2,7.4c-0.2,0.4-0.3,1-0.3,1.4c0.3,1.7-0.2,3.1-1.5,4.1
	c-1.3,1.1-2.8,1.2-4.3,0.5c-0.6-0.3-1.1-0.3-1.6,0c-0.8,0.4-1.9,0.5-2.2,1.1c-0.3,0.6,0,1.6,0.1,2.5c0.3,2.5,0.2,4.9-0.5,7.3
	c-0.8,2.9-2.4,5.1-5.5,5.8c-1.9,0.4-3.8,0.1-5.6-0.6C34.4,54.8,32.1,53.2,30,51.5z M29.8,41.3c1.8-0.1,3.6-0.1,5.4-0.3
	c0.5,0,1.1-0.4,1.3-0.8c1.9-3.2,3.7-6.3,5.5-9.5c0.2-0.3,0.2-1,0-1.3c-1.8-3.2-3.6-6.4-5.5-9.6c-0.2-0.4-0.9-0.8-1.3-0.8
	C31.6,19,28,19,24.3,19c-0.4,0-1,0.3-1.3,0.7c-1.9,3.2-3.7,6.4-5.6,9.6c-0.2,0.3-0.2,0.9,0,1.3c1.8,3.2,3.7,6.5,5.6,9.6
	c0.2,0.4,0.9,0.7,1.3,0.7C26.2,41.2,28,41.2,29.8,41.3z M11.7,21.8c-2.6,0.7-6,2.8-7.6,4.7c-1.9,2.2-2,4.4-0.3,6.5
	c2.1,2.7,5,4,8,5.2c1-2.7,1.9-5.4,2.8-8c0-0.1,0.1-0.3,0-0.5C13.6,27.2,12.6,24.5,11.7,21.8z M31.7,49.9c2.4,1.9,4.9,3.7,8.1,4.2
	c2.9,0.5,4.9-0.7,5.8-3.4c1.1-3,0.8-6.1,0.3-9c-2.8,0.5-5.5,1-8.2,1.5c-0.2,0-0.5,0.2-0.7,0.4C35.4,45.6,33.6,47.7,31.7,49.9z
	 M46,18.4c0.1-0.7,0.2-1.5,0.3-2.3c0.2-2.5,0.2-5-0.9-7.4c-1-2.2-2.6-3.1-5-2.9c-2.7,0.3-4.9,1.6-7.1,3.1c-0.6,0.4-1.2,0.9-1.7,1.2
	c1.9,2.2,3.6,4.2,5.4,6.2c0.2,0.2,0.5,0.4,0.8,0.5C40.6,17.4,43.3,17.9,46,18.4z M13.6,18.4c2.8-0.5,5.4-1,8.1-1.5
	c0.2,0,0.5-0.2,0.7-0.3c1.8-2.1,3.6-4.2,5.5-6.4c-1.2-0.8-2.4-1.7-3.6-2.5c-1.2,1.3-2.6,1.9-4.3,1.6c-1.7-0.4-2.6-1.5-3.2-3
	c-1.4,0.5-2.3,1.6-2.8,2.9C12.9,12.1,13.1,15.3,13.6,18.4z M13.2,44.8c1.8,0.5,3,1.5,3.5,3.3c0.4,1.8-0.3,3.2-1.7,4.4
	c1.1,1.4,2.5,1.8,4.1,1.7c3.5-0.4,6.2-2.3,8.8-4.3c-1.9-2.2-3.7-4.3-5.5-6.4c-0.1-0.2-0.4-0.3-0.6-0.3c-2.7-0.5-5.4-1-8.2-1.5
	C13.5,42.6,13.4,43.6,13.2,44.8z M48,38.3c0.7-0.3,1.4-0.6,2.2-0.9c-0.9-3.6,2.3-6.8,6.2-5c1-1.6,0.9-3.3-0.1-4.8
	c-2-3.1-5.2-4.5-8.3-5.7c-1,2.7-1.9,5.3-2.8,7.9c-0.1,0.2-0.1,0.5,0,0.6C46.1,32.9,47,35.5,48,38.3z M39.4,19.5
	c1.5,2.6,2.9,5,4.3,7.5c0.6-2.1,1.2-4,1.9-6.1C43.5,20.4,41.5,20,39.4,19.5z M14,20.9c0.7,2.1,1.2,4,1.9,6.1c1.5-2.6,2.9-5,4.3-7.5
	C18.1,19.9,16.2,20.4,14,20.9z M14,39.2c2.2,0.5,4.1,0.9,6.2,1.4c-1.5-2.6-2.9-4.9-4.3-7.5C15.2,35.1,14.7,37.1,14,39.2z M45.6,39.1
	c-0.6-2.1-1.2-4-1.9-6.1c-1.5,2.6-2.9,5-4.3,7.5C41.5,40.1,43.5,39.6,45.6,39.1z M25.5,16.5c3,0,5.7,0,8.7,0
	c-1.5-1.6-2.9-3.1-4.4-4.7C28.3,13.4,27,14.9,25.5,16.5z M34.2,43.6c-3,0-5.7,0-8.7,0c1.5,1.6,2.9,3.1,4.4,4.7
	C31.3,46.7,32.7,45.2,34.2,43.6z"/>
<path fill="#FFFFFF" d="M38.1,30.6c0,4.6-3.7,8.3-8.2,8.3c-4.6,0-8.3-3.7-8.4-8.2c0-4.6,3.7-8.4,8.3-8.4
	C34.4,22.3,38.1,26,38.1,30.6z"/>
</svg>
