<?xml version="1.0" encoding="utf-8"?>
<!-- Generator: Adobe Illustrator 17.1.0, SVG Export Plug-In . SVG Version: 6.00 Build 0)  -->
<!DOCTYPE svg PUBLIC "-//W3C//DTD SVG 1.1//EN" "http://www.w3.org/Graphics/SVG/1.1/DTD/svg11.dtd">
<svg version="1.1" xmlns="http://www.w3.org/2000/svg" xmlns:xlink="http://www.w3.org/1999/xlink" x="0px" y="0px"
	 viewBox="0 0 60 60" enable-background="new 0 0 60 60" xml:space="preserve">
<g id="Calque_2">
</g>
<g id="Calque_1">
	<path fill="#FFFFFF" d="M30.1,0c16.2,0,29.3,13.2,29.3,29.4c0,16.2-13.2,29.3-29.4,29.3c-16.1,0-29.2-13.2-29.2-29.3
		C0.7,13.1,13.8,0,30.1,0z M34.8,29c2.3-1.8,4.9-3.3,7.8-4.3c2.8-1.1,5.7-1.6,8.8-1.9C48.8,15.4,43.9,10.5,36.5,8
		c-0.4,6.2-2.4,11.7-6.1,16.5C31.9,26,33.3,27.5,34.8,29z M8.7,35.8c2,7.5,8.9,13.4,14.8,14.7c0.4-6.1,2.4-11.6,6.1-16.4
		c-1.5-1.5-3-3-4.5-4.5C20.4,33.3,14.9,35.4,8.7,35.8z M30.5,51.6c4.7-0.1,8.8-1.5,12.4-4.1c-2.8-2.8-5.5-5.5-8.3-8.3
		C32.1,42.9,30.7,47,30.5,51.6z M29.4,7.1c-4.6,0.1-8.7,1.5-12.3,4.1c2.8,2.8,5.5,5.5,8.2,8.2C27.7,16.5,29.6,10.8,29.4,7.1z
		 M7.7,28.8c4.6-0.2,8.8-1.6,12.3-4.1c-2.8-2.8-5.5-5.5-8.2-8.3C9.3,20,7.9,24.1,7.7,28.8z M48.1,42.3c2.6-3.7,4-7.8,4.1-12.5
		c-4.7,0.2-8.8,1.5-12.4,4.2C42.6,36.8,45.3,39.6,48.1,42.3z"/>
</g>
</svg>
