<?xml version="1.0" encoding="utf-8"?>
<!-- Generator: Adobe Illustrator 17.1.0, SVG Export Plug-In . SVG Version: 6.00 Build 0)  -->
<!DOCTYPE svg PUBLIC "-//W3C//DTD SVG 1.1//EN" "http://www.w3.org/Graphics/SVG/1.1/DTD/svg11.dtd">
<svg version="1.1" xmlns="http://www.w3.org/2000/svg" xmlns:xlink="http://www.w3.org/1999/xlink" x="0px" y="0px"
	 viewBox="0 0 60 60" enable-background="new 0 0 60 60" xml:space="preserve">
<g id="Calque_2">
</g>
<g id="Calque_1">
	<path fill="#FFFFFF" d="M60,29c0,8.5,0,17.1,0,25.6c0,2.7-1.7,4.4-4.4,4.4c-17.1,0-34.2,0-51.2,0C1.7,59,0,57.3,0,54.6
		C0,37.5,0,20.5,0,3.4C0,0.7,1.7-1,4.4-1c17.1,0,34.2,0,51.2,0C58.3-1,60,0.7,60,3.4C60,11.9,60,20.5,60,29z M44.7,16.3
		c0.4,0,0.8,0,1.2,0c0.7,0.1,1.3-0.2,1.8-0.7c1.1-1.1,2.2-2.2,3.3-3.3c0.7-0.7,1.7-0.7,2.3,0c0.9,0.9,2.3,0.9,3.2,0
		c0.9-0.9,0.9-2.3,0-3.2c-0.9-0.9-2.4-0.8-3.2,0.1c-0.3,0.4-0.6,0.5-1.1,0.5c-0.2,0-0.5,0-0.7,0c-0.7-0.1-1.1,0.2-1.6,0.7
		c-1.1,1.2-2.3,2.2-3.4,3.4c-0.5,0.5-1,0.5-1.6,0.4c0-0.5,0-1,0-1.5c0.1-0.7-0.2-1.2-0.7-1.6c-1.2-1.1-2.3-2.3-3.5-3.5
		c-0.6-0.6-0.5-1.6,0.1-2.2c0.9-0.9,1-2.3,0.1-3.2c-0.8-0.9-2.3-0.9-3.2-0.1c-0.9,0.9-0.9,2.3,0,3.2c0.4,0.3,0.5,0.7,0.5,1.2
		c0,0.2,0,0.5,0,0.7c-0.1,0.6,0.2,1.1,0.6,1.5c1.1,1.1,2.1,2.2,3.2,3.2c0.9,0.7,0.6,1.6,0.6,2.5c-1.6,0-3.2,0-4.7,0
		c0-0.7,0-1.3,0-1.9c0-0.5-0.2-0.9-0.5-1.3c-1.2-1.2-2.4-2.4-3.6-3.6c-0.6-0.6-0.6-1.6,0-2.2c0.9-0.9,1-2.3,0.1-3.2
		c-0.9-0.9-2.3-0.9-3.2,0c-0.9,0.9-0.9,2.4,0.1,3.2c0.4,0.3,0.5,0.6,0.5,1.1c0,0.3,0,0.6,0,0.8c-0.1,0.6,0.2,1,0.6,1.4
		c1.1,1.1,2.1,2.2,3.3,3.2c0.9,0.7,0.7,1.6,0.6,2.5c-1.6,0-3.1,0-4.7,0c0-0.6,0-1.3,0-1.9c0-0.5-0.2-1-0.5-1.3
		c-1.2-1.2-2.4-2.4-3.6-3.6c-0.6-0.6-0.6-1.6,0-2.2c0.9-0.9,1-2.3,0.1-3.2c-0.9-0.9-2.3-0.9-3.2,0C23,3,23,4.5,24,5.3
		c0.4,0.3,0.5,0.6,0.4,1.1c0,0.3,0,0.5,0,0.8c-0.1,0.6,0.2,1.1,0.6,1.5c1.1,1,2.1,2.2,3.2,3.2c0.9,0.8,0.7,1.6,0.7,2.5
		c-1.6,0-3.1,0-4.7,0c0-0.6,0-1.1,0-1.6c0.1-0.7-0.2-1.2-0.7-1.7c-1.2-1.1-2.3-2.3-3.5-3.5c-0.5-0.5-0.5-1.6,0.1-2.1
		c0.9-0.9,1-2.3,0.1-3.2c-0.9-0.9-2.3-0.9-3.2,0c-0.9,0.9-0.9,2.4,0.1,3.2c0.3,0.3,0.5,0.5,0.4,1c0,0.3,0,0.6,0,0.8
		c-0.1,0.6,0.2,1.1,0.6,1.5c1.1,1,2,2.1,3.1,3.1c0.9,0.8,0.8,1.6,0.7,2.6c-1.6,0-3.1,0-4.7,0c0-0.6,0-1.2,0-1.8c0-0.6-0.2-1-0.6-1.4
		c-1.2-1.2-2.4-2.4-3.6-3.6c-0.6-0.6-0.5-1.6,0-2.2c0.9-0.9,0.9-2.3,0.1-3.2c-0.9-0.9-2.3-0.9-3.2,0c-0.9,0.9-0.8,2.4,0.1,3.2
		c0.4,0.3,0.5,0.6,0.5,1.1c0,0.3,0,0.6,0,0.8c-0.1,0.6,0.2,1,0.6,1.4c1.1,1.1,2.2,2.3,3.3,3.3c0.7,0.7,0.7,1.4,0.6,2.2
		c-0.8,0-1.5,0-2.2,0c-0.5,0-0.9,0.2-1.3,0.5c-1.2,1.2-2.5,2.5-3.7,3.7c-0.5,0.5-1.6,0.5-2.1-0.1c-0.9-1-2.3-1.1-3.3-0.2
		c-0.9,0.9-0.9,2.3,0,3.2c0.9,0.9,2.4,0.9,3.2-0.1c0.3-0.3,0.5-0.4,0.9-0.4c0.3,0,0.6,0,0.8,0c0.6,0.1,1.1-0.2,1.5-0.6
		c1.2-1.2,2.4-2.4,3.6-3.6c0.1-0.1,0.3-0.3,0.5-0.3c0.7,0,1.4,0,2.1,0c0,1.6,0,3.2,0,4.7c-0.8,0-1.6,0-2.4,0c-0.5,0-0.9,0.2-1.3,0.5
		c-1.2,1.2-2.4,2.4-3.6,3.7c-0.5,0.5-1.6,0.5-2.1-0.1c-0.9-1-2.3-1-3.2-0.1c-0.9,0.9-0.9,2.3,0,3.2C3.5,29.1,5,29,5.8,28.1
		c0.3-0.3,0.6-0.5,1-0.4c0.3,0,0.6,0,0.8,0c0.6,0.1,1.1-0.2,1.5-0.6c1.2-1.2,2.4-2.4,3.6-3.6c0.1-0.1,0.3-0.3,0.4-0.3
		c0.7,0,1.5,0,2.2,0c0,1.6,0,3.2,0,4.8c-0.8,0-1.6,0-2.4,0c-0.5,0-0.9,0.2-1.3,0.5C10.4,29.6,9.2,30.8,8,32
		c-0.6,0.6-1.6,0.5-2.2-0.1C5,31,3.5,31,2.6,31.9c-0.9,0.9-0.9,2.3,0,3.2C3.5,35.9,5,35.9,5.8,35c0.3-0.4,0.6-0.5,1.1-0.5
		c0.2,0,0.5,0,0.7,0c0.7,0.1,1.1-0.2,1.6-0.6c1.1-1.2,2.3-2.4,3.5-3.5c0.1-0.1,0.3-0.3,0.5-0.3c0.7,0,1.4,0,2.1,0c0,1.6,0,3.2,0,4.8
		c-0.8,0-1.5,0-2.3,0c-0.6,0-1.1,0.2-1.5,0.6c-1.2,1.2-2.4,2.4-3.6,3.7c-0.5,0.5-1.6,0.4-2-0.1c-0.9-1-2.3-1.1-3.3-0.2
		c-0.9,0.9-0.9,2.3,0,3.2c0.9,0.9,2.4,0.9,3.2-0.1c0.2-0.3,0.5-0.4,0.9-0.4c0.3,0,0.6,0,1,0c0.6,0.1,1.1-0.2,1.5-0.6
		c1.2-1.2,2.4-2.4,3.6-3.6c0.1-0.1,0.3-0.3,0.4-0.3c0.7,0,1.5,0,2.2,0c0,1.6,0,3.1,0,4.7c-0.8,0-1.6,0-2.4,0c-0.5,0-0.9,0.2-1.3,0.5
		c-1.2,1.2-2.4,2.4-3.6,3.7c-0.5,0.5-1.6,0.5-2.1,0c-0.9-0.9-2.3-1-3.2-0.1c-0.9,0.9-0.9,2.4,0,3.2c0.9,0.9,2.4,0.8,3.2-0.2
		c0.3-0.3,0.5-0.4,0.9-0.4c0.3,0,0.6,0,0.9,0c0.6,0,1-0.2,1.4-0.6c1.1-1.1,2.3-2.2,3.3-3.4c0.5-0.5,1-0.7,1.8-0.5c0,0.5,0,1.1,0,1.6
		c0,0.6,0.2,1.1,0.6,1.5c1.2,1.2,2.4,2.3,3.5,3.5c0.6,0.6,0.6,1.6,0,2.2c-0.9,0.9-1,2.3-0.1,3.2c0.9,0.9,2.3,0.9,3.2,0
		c0.9-0.9,0.8-2.4-0.1-3.2c-0.4-0.3-0.5-0.6-0.4-1c0-0.3,0-0.6,0-0.8c0.1-0.6-0.2-1-0.6-1.4c-1.1-1.1-2.1-2.2-3.2-3.2
		c-0.9-0.7-0.7-1.6-0.7-2.5c1.6,0,3.1,0,4.7,0c0,0.6,0,1.2,0,1.8c0,0.5,0.2,0.9,0.5,1.3c1.2,1.2,2.4,2.4,3.6,3.6
		c0.5,0.5,0.5,1.6-0.1,2.1c-0.9,0.8-1,2.3-0.2,3.2c0.9,0.9,2.3,1,3.2,0.1c0.9-0.9,0.9-2.3-0.1-3.2c-0.4-0.3-0.5-0.7-0.5-1.1
		c0-0.2,0-0.5,0-0.7c0.1-0.6-0.2-1.1-0.6-1.5c-1.1-1.1-2.1-2.2-3.2-3.2c-0.9-0.7-0.6-1.6-0.6-2.4c1.6,0,3.1,0,4.7,0
		c0,0.6,0,1.3,0,1.9c0,0.5,0.2,0.9,0.5,1.3c1.2,1.2,2.4,2.4,3.6,3.6c0.7,0.7,0.6,1.6,0,2.3c-0.9,0.9-0.9,2.3-0.1,3.2
		c0.9,0.9,2.4,0.9,3.2,0c0.9-0.9,0.8-2.4-0.1-3.2c-0.4-0.3-0.5-0.6-0.4-1c0-0.3,0-0.6,0-0.8c0-0.6-0.2-1-0.6-1.4
		c-1.1-1.1-2.1-2.2-3.3-3.2c-0.9-0.7-0.6-1.6-0.6-2.4c1.6,0,3.1,0,4.7,0c0,0.6,0,1.2,0,1.8c0,0.5,0.2,1,0.6,1.3
		c1.2,1.2,2.4,2.4,3.6,3.6c0.6,0.6,0.6,1.6,0,2.2c-0.9,0.9-1,2.3-0.1,3.2c0.9,0.9,2.3,0.9,3.2,0c0.9-0.9,0.9-2.3,0-3.2
		c-0.4-0.4-0.5-0.7-0.5-1.2c0-0.2,0-0.4,0-0.7c0.1-0.6-0.2-1.1-0.6-1.5c-1.1-1-2-2.2-3.2-3.1c-0.9-0.7-0.8-1.6-0.7-2.5
		c1.6,0,3.1,0,4.7,0c0,0.6,0,1.2,0,1.8c0,0.6,0.2,1,0.6,1.4c1.2,1.2,2.4,2.3,3.5,3.5c0.6,0.6,0.6,1.7,0,2.3c-0.9,0.9-0.9,2.3,0,3.2
		c0.9,0.9,2.3,0.9,3.1,0c0.9-0.9,0.9-2.3,0-3.2c-0.5-0.4-0.5-0.8-0.5-1.3c0-0.2,0-0.4,0-0.6c0.1-0.6-0.2-1.1-0.6-1.5
		c-1.1-1.1-2.1-2.2-3.3-3.2c-0.7-0.7-0.7-1.4-0.6-2.2c0.8,0,1.5,0,2.2,0c0.5,0,0.9-0.2,1.3-0.5c1.2-1.2,2.4-2.4,3.6-3.7
		c0.5-0.5,1.6-0.5,2.1,0.1c0.8,0.9,2.3,1,3.2,0.2c0.9-0.9,1-2.3,0.1-3.2c-0.9-0.9-2.4-0.9-3.2,0c-0.3,0.4-0.7,0.5-1.1,0.5
		c-0.2,0-0.4,0-0.7,0c-0.6-0.1-1.1,0.2-1.6,0.6c-1,1.1-2.2,2.1-3.2,3.2c-0.6,0.6-1.2,0.7-2,0.6c0-1.6,0-3.1,0-4.7c0.4,0,0.9,0,1.3,0
		c0.7,0.1,1.1-0.2,1.6-0.7c1.1-1.2,2.3-2.3,3.4-3.4c0.6-0.6,1.7-0.6,2.2,0c0.9,0.9,2.3,1,3.2,0.1c0.9-0.9,0.9-2.3,0-3.2
		c-0.9-0.9-2.3-0.9-3.2,0c-0.3,0.4-0.7,0.5-1.2,0.5c-0.2,0-0.5,0-0.7,0c-0.6-0.1-1.1,0.2-1.5,0.6c-1.1,1.1-2.3,2.2-3.3,3.4
		c-0.6,0.6-1.2,0.6-1.9,0.5c0-1.6,0-3.1,0-4.7c0.4,0,0.8,0,1.2,0c0.7,0.1,1.2-0.2,1.7-0.7c1.1-1.2,2.3-2.4,3.5-3.5
		c0.5-0.5,1.6-0.4,2,0.1c0.9,1,2.3,1.1,3.3,0.2c0.9-0.9,0.9-2.3,0-3.2c-0.9-0.9-2.4-0.8-3.3,0.2c-0.2,0.2-0.5,0.3-0.8,0.4
		c-0.3,0.1-0.6,0-1,0c-0.6-0.1-1.1,0.2-1.5,0.6c-1.1,1.1-2.2,2.2-3.3,3.3C46,28,45.4,28,44.7,27.9c0-1.6,0-3.1,0-4.7
		c0.4,0,0.8,0,1.2,0c0.7,0.1,1.2-0.2,1.7-0.7c1.1-1.2,2.3-2.3,3.4-3.4c0.6-0.6,1.6-0.5,2.2,0.1c0.8,0.9,2.3,1,3.2,0.1
		c0.9-0.9,0.9-2.3,0.1-3.2c-0.9-0.9-2.3-0.9-3.2,0c-0.3,0.4-0.7,0.5-1.2,0.5c-0.2,0-0.5,0-0.7,0c-0.6-0.1-1.1,0.2-1.5,0.6
		c-1.1,1.1-2.2,2.2-3.3,3.3c-0.6,0.6-1.2,0.7-1.9,0.5C44.7,19.5,44.7,17.9,44.7,16.3z"/>
</g>
</svg>
